<svg width="297" height="93" viewBox="0 0 297 93" fill="none" xmlns="http://www.w3.org/2000/svg">
<path fill-rule="evenodd" clip-rule="evenodd" d="M46.0513 92.1068C43.4732 92.1068 40.9595 91.8417 38.495 91.4364L40.6075 86.1726C42.3924 86.4142 44.2009 86.581 46.0513 86.581C48.611 86.581 51.1073 86.3139 53.536 85.8615L47.3972 79.212H34.9988V73.6872H28.9613C28.3237 74.7824 27.1487 75.5295 25.7896 75.5295C23.7549 75.5295 22.104 73.8797 22.104 71.844C22.104 69.8083 23.7539 68.1595 25.7896 68.1595C27.1498 68.1595 28.3247 68.9045 28.9613 70.0017H34.9988V64.4739H57.1059V65.262L61.6256 70.1583C61.948 70.0662 62.2816 70.0017 62.6317 70.0017C64.6663 70.0017 66.3162 71.6516 66.3162 73.6872C66.3162 75.7209 64.6674 77.3697 62.6317 77.3697C60.596 77.3697 58.9482 75.7219 58.9482 73.6872C58.9482 73.3843 58.9932 73.0947 59.0607 72.8132L54.7652 68.1595H38.6843V75.5285H49.7369V76.3145L57.6432 84.8769C64.3736 82.8709 70.3487 79.1444 75.115 74.2379L69.5033 68.1595H68.1595V50.7358L62.5969 44.7147C61.0586 46.0544 59.4231 47.4801 57.8367 48.8628C57.5306 49.132 56.9227 49.6601 56.9227 49.6601L55.2636 49.6847V49.7369H47.3839C46.7463 50.834 45.5713 51.5802 44.2111 51.5802C42.1764 51.5802 40.5266 49.9303 40.5266 47.8946C40.5266 45.8589 42.1764 44.2111 44.2111 44.2111C45.5713 44.2111 46.7463 44.9562 47.3839 46.0534H55.2636V46.4556L66.3162 36.6067V22.105H58.9492V29.9858C60.0443 30.6234 60.7894 31.7984 60.7894 33.1576C60.7894 35.1922 59.1416 36.8431 57.1059 36.8431C55.0723 36.8431 53.4214 35.1933 53.4214 33.1576C53.4214 31.7974 54.1665 30.6224 55.2636 29.9858V18.4205H66.3162V11.0689C64.8567 10.2245 63.3583 9.4385 61.7914 8.77836C61.2049 9.04856 60.5571 9.21027 59.8683 9.21027C57.326 9.21027 55.2636 7.14796 55.2636 4.60462C55.2636 2.06231 57.326 0 59.8683 0C62.1639 0 64.0512 1.6826 64.4002 3.87693C80.6919 10.9696 92.1057 27.1518 92.1057 46.0534C92.1057 71.4878 71.4878 92.1068 46.0513 92.1068ZM77.3687 47.8956C75.334 47.8956 73.6852 46.2478 73.6852 44.2122C73.6852 42.852 74.4313 41.677 75.5265 41.0383V25.7906H81.1259C78.3083 20.9485 74.503 16.7543 70.0017 13.4536V40.5276H67.4C66.8023 41.0476 66.1207 41.6432 65.3756 42.2911L72.0538 49.526L71.7764 49.7379H71.8419V55.2647H74.1959C74.8325 54.1675 76.0075 53.4224 77.3677 53.4224C79.4023 53.4224 81.0532 55.0723 81.0532 57.108C81.0532 59.1416 79.4034 60.7925 77.3677 60.7925C76.0075 60.7925 74.8325 60.0464 74.1959 58.9502H71.8419V65.263L77.5714 71.4684C83.1892 64.5179 86.58 55.6915 86.58 46.0544C86.58 40.1356 85.2843 34.5331 82.9999 29.4751H79.211V41.0383C80.3081 41.678 81.0532 42.852 81.0532 44.2122C81.0532 46.2468 79.4034 47.8956 77.3687 47.8956ZM46.0513 5.52575C44.8088 5.52575 43.5827 5.60354 42.3689 5.71305V17.3664L46.8885 22.2627C47.2099 22.1706 47.5436 22.1061 47.8936 22.1061C49.9283 22.1061 51.5791 23.7559 51.5791 25.7916C51.5791 27.8263 49.9293 29.4761 47.8936 29.4761C45.8579 29.4761 44.2101 27.8263 44.2101 25.7916C44.2101 25.4897 44.2551 25.199 44.3237 24.9186L41.7292 22.1061H39.7662L33.2671 27.772L38.2412 33.1586H38.6823V33.6376L38.7007 33.6581L38.6823 33.6744V57.109H57.6176C58.2542 56.0108 59.4292 55.2657 60.7894 55.2657C62.8241 55.2657 64.4749 56.9155 64.4749 58.9512C64.4749 60.9869 62.8251 62.6347 60.7894 62.6347C59.4292 62.6347 58.2542 61.8886 57.6176 60.7935H34.9998V35.0776L18.1033 16.7748C17.0798 17.7502 16.1157 18.7839 15.1976 19.8606L30.8742 36.8431H31.3153V37.3211L31.3337 37.3415L31.3153 37.3579V62.6337H14.7381V53.4234H6.21557C9.02399 68.6681 20.3631 80.9109 35.1073 85.0448L33.0348 90.2123C13.9438 84.5893 0 66.963 0 46.0544C0 20.619 20.619 0.00102389 46.0524 0.00102389C48.5568 0.00102389 50.9968 0.254846 53.3927 0.639673L51.2823 5.90239C49.566 5.68132 47.8291 5.52575 46.0513 5.52575ZM12.8999 22.8041C8.25946 29.3799 5.52473 37.3897 5.52473 46.0544C5.52473 47.2969 5.58921 48.523 5.69974 49.7379H18.4195V58.9502H27.6308V38.7621L21.8717 32.524L16.5179 39.9391C16.5496 40.1315 16.5793 40.326 16.5793 40.5276C16.5793 42.5623 14.9295 44.2122 12.8948 44.2122C10.8601 44.2122 9.21027 42.5623 9.21027 40.5276C9.21027 38.493 10.8601 36.8431 12.8948 36.8431C13.3052 36.8431 13.6921 36.926 14.0605 37.0499L19.3232 29.7627L12.8999 22.8041ZM38.6843 6.22786C32.0348 7.45091 25.9748 10.3197 20.8871 14.3563L30.7698 25.0629L38.6843 18.1626V6.22786Z" fill="white"/>
<path d="M146.366 54.4874L149.496 49.0613L158.957 65.3398H165.218C163.827 63.1137 150.609 40.5046 149.496 38.2785L135.861 61.931L130.783 70.766H112C113.043 69.0268 120.07 56.7831 126.818 45.0264C130.783 38.1394 135.166 30.4175 140.105 22H146.366L133.426 44.4003L121.391 65.3398H127.652C136.209 50.2439 141.566 41.3394 149.496 27.4262C149.983 28.261 174.471 70.6964 174.61 70.766H155.827L146.366 54.4874ZM192.697 43.6351H223.863V70.766H193.88C180.871 70.2094 170.575 59.4962 170.575 46.4178C170.575 33.2697 180.871 22.5565 193.88 22H223.863V38.3481H193.88C189.775 38.6959 186.645 42.2438 186.645 46.3482C186.645 50.5917 189.775 53.9309 193.88 54.4874H212.941V59.9136H193.88C186.853 59.3571 181.288 53.5831 181.288 46.3482C181.288 39.3916 186.645 33.4089 193.601 32.8523H218.367V27.4262H193.88C183.932 27.9827 176.001 36.2611 176.001 46.4178C176.001 56.5049 183.932 64.7833 193.88 65.3398H218.367V49.0613H192.697V43.6351ZM267.968 54.4874L271.098 49.0613L280.559 65.3398H286.82C285.429 63.1137 272.211 40.5046 271.098 38.2785L257.463 61.931L252.385 70.766H233.602C234.645 69.0268 241.672 56.7831 248.419 45.0264C252.385 38.1394 256.767 30.4175 261.707 22H267.968L255.028 44.4003L242.993 65.3398H249.254C257.811 50.2439 263.168 41.3394 271.098 27.4262C271.585 28.261 296.072 70.6964 296.211 70.766H277.429L267.968 54.4874Z" fill="white"/>
</svg>
